<svg width="48" height="48" viewBox="0 0 48 48" fill="none" xmlns="http://www.w3.org/2000/svg">
<rect width="47.9999" height="47.9999" fill="#323238"/>
<g clip-path="url(#clip0_61385:205)">
<path d="M36.6848 16.8454C35.7602 17.236 34.7803 17.4936 33.7768 17.6099C34.8351 17.0044 35.6269 16.0517 36.0047 14.9295C35.0114 15.4966 33.9233 15.8957 32.7881 16.1093C32.0947 15.3978 31.193 14.9025 30.2006 14.6882C29.2083 14.4739 28.1714 14.5504 27.2252 14.9078C26.2791 15.2652 25.4676 15.8869 24.8967 16.6917C24.3258 17.4966 24.0219 18.4472 24.0247 19.4196C24.0228 19.7917 24.0667 20.1627 24.1555 20.525C22.1395 20.4295 20.1673 19.9286 18.3675 19.0551C16.5678 18.1816 14.9811 16.9551 13.711 15.4557C13.063 16.5232 12.8652 17.7866 13.1578 18.9886C13.4504 20.1907 14.2115 21.2409 15.2859 21.9253C14.4784 21.9062 13.6881 21.6984 12.984 21.3201V21.3803C12.9835 22.4996 13.3884 23.5845 14.13 24.4508C14.8716 25.317 15.9042 25.9111 17.0522 26.1322C16.6173 26.2449 16.1686 26.302 15.7179 26.302C15.3984 26.3027 15.0796 26.2726 14.7663 26.2124C15.0899 27.175 15.7203 28.0169 16.5693 28.6202C17.4183 29.2235 18.4433 29.558 19.501 29.577C17.7064 30.9252 15.4888 31.6563 13.2062 31.6521C12.8023 31.6516 12.3988 31.6284 11.9978 31.5825C14.3044 33.0171 16.9984 33.7779 19.7504 33.772C21.6487 33.7848 23.5307 33.4367 25.287 32.7481C27.0433 32.0595 28.6389 31.044 29.981 29.7608C31.3231 28.4776 32.3849 26.9522 33.1048 25.2733C33.8247 23.5944 34.1882 21.7955 34.1742 19.9811C34.1742 19.7711 34.1742 19.5611 34.1582 19.3559C35.1497 18.6691 36.0052 17.819 36.6848 16.8454V16.8454Z" fill="white"/>
</g>
<defs>
<clipPath id="clip0_61385:205">
<rect width="24.6857" height="19.2" fill="white" transform="translate(11.9999 14.5712)"/>
</clipPath>
</defs>
</svg>
